<?xml version="1.0" standalone="no"?>
<!DOCTYPE svg PUBLIC "-//W3C//DTD SVG 20010904//EN"
 "http://www.w3.org/TR/2001/REC-SVG-20010904/DTD/svg10.dtd">
<svg version="1.0" xmlns="http://www.w3.org/2000/svg"
 width="500.000000pt" height="500.000000pt" viewBox="0 0 500.000000 500.000000"
 preserveAspectRatio="xMidYMid meet">
<metadata>
Created by potrace 1.11, written by Peter Selinger 2001-2013
</metadata>
<g transform="translate(0.000000,500.000000) scale(0.100000,-0.100000)"
fill="#000000" stroke="none">
<path d="M975 4986 c-97 -24 -165 -78 -213 -169 l-27 -52 0 -2265 0 -2265 27
-52 c36 -68 90 -120 158 -152 l55 -26 1260 0 c1181 0 1265 1 1337 18 182 43
304 111 438 246 100 101 141 161 195 288 70 162 66 22 63 2223 l-3 1985 -27
52 c-36 68 -90 120 -158 152 l-55 26 -1500 2 c-1169 1 -1511 -1 -1550 -11z
m3054 -171 c19 -11 43 -33 55 -48 l21 -28 3 -1965 c2 -2201 8 -2038 -72 -2199
-100 -201 -249 -325 -461 -387 l-80 -23 -1245 0 c-1227 0 -1245 0 -1279 20
-19 11 -43 33 -55 48 l-21 28 -3 2217 c-2 1495 0 2229 7 2253 6 19 22 45 35
58 56 52 -11 50 1581 48 1460 -2 1480 -2 1514 -22z"/>
<path d="M1130 3470 l0 -1130 118 -1 c158 -1 1997 -1 2345 0 l277 1 0 1130 0
1130 -1370 0 -1370 0 0 -1130z m2580 -5 l0 -965 -1210 0 -1210 0 0 965 0 965
1210 0 1210 0 0 -965z"/>
<path d="M1493 4352 l-123 -3 0 -884 0 -885 1130 0 1130 0 0 885 c0 701 -3
885 -12 886 -36 2 -2021 4 -2125 1z m655 -342 c15 -14 22 -33 22 -57 0 -34
-12 -49 -172 -209 -94 -95 -184 -178 -199 -184 -55 -23 -121 38 -100 92 5 12
90 103 188 201 152 150 184 177 209 177 17 0 40 -9 52 -20z m407 -5 c16 -15
25 -35 25 -56 0 -28 -18 -51 -143 -176 -125 -125 -148 -143 -176 -143 -43 0
-81 38 -81 82 0 28 18 50 143 175 125 125 147 143 175 143 22 0 41 -9 57 -25z
m-403 -402 c35 -31 30 -89 -11 -120 -43 -33 -121 4 -121 58 0 17 5 39 11 50
21 40 83 46 121 12z m-181 -144 c30 -16 49 -67 37 -99 -5 -15 -51 -68 -102
-119 -78 -76 -98 -91 -125 -91 -44 0 -67 14 -79 48 -15 43 5 76 104 173 105
102 122 111 165 88z"/>
<path d="M3380 1915 c-60 -28 -102 -66 -126 -119 -42 -89 -28 -189 34 -258 49
-54 102 -78 178 -78 117 0 210 74 234 187 20 94 -26 202 -106 249 -57 34 -161
43 -214 19z"/>
<path d="M1610 1701 l0 -159 -160 -7 -160 -8 0 -158 0 -159 160 0 160 0 0
-160 0 -160 165 0 165 0 0 160 0 160 160 0 160 0 0 160 0 160 -160 0 -160 0
-2 163 -3 162 -162 3 -163 2 0 -159z"/>
<path d="M2829 1356 c-96 -34 -149 -105 -157 -207 -8 -113 35 -190 133 -235
118 -56 253 -7 311 112 23 47 26 63 22 119 -9 106 -61 176 -159 210 -50 18
-102 18 -150 1z"/>
<path d="M3685 1070 c-59 -59 -59 -60 -40 -78 11 -10 58 -55 105 -100 l86 -82
57 58 57 57 -103 103 -102 102 -60 -60z"/>
<path d="M3440 825 l-55 -55 103 -102 102 -103 55 55 c30 30 55 59 55 65 0 13
-182 195 -196 195 -5 0 -34 -25 -64 -55z"/>
<path d="M3200 585 l-55 -55 103 -103 102 -102 57 58 58 57 -100 100 c-55 55
-102 100 -105 100 -3 0 -30 -25 -60 -55z"/>
</g>
</svg>
